<svg width="536" height="52" viewBox="0 0 536 52" fill="none" xmlns="http://www.w3.org/2000/svg">
<path d="M481 2.13523C481 0.955976 481.981 0 483.191 0H533.809C535.019 0 536 0.955976 536 2.13523V9.86477C536 11.044 535.019 12 533.809 12H483.191C481.981 12 481 11.044 481 9.86477V2.13523Z" fill="white"/>
<path d="M502 14.1715C502 12.9722 502.997 12 504.226 12H512.774C514.003 12 515 12.9722 515 14.1715V48.8285C515 50.0278 514.003 51 512.774 51H504.226C502.997 51 502 50.0278 502 48.8285V14.1715Z" fill="white"/>
<path d="M502.567 12.798C502.936 12.2591 503.672 12.1216 504.211 12.4908L512.812 18.384C513.351 18.7532 513.489 19.4894 513.12 20.0283L492.221 50.5297C491.852 51.0686 491.116 51.2061 490.577 50.8369L481.976 44.9437C481.437 44.5745 481.299 43.8383 481.669 43.2994L502.567 12.798Z" fill="white"/>
<path d="M503.879 19.8535C503.51 19.3147 503.648 18.5785 504.186 18.2092L512.787 12.3157C513.326 11.9464 514.062 12.0839 514.432 12.6228L535.331 43.1233C535.701 43.6622 535.563 44.3984 535.024 44.7676L526.423 50.6612C525.885 51.0304 525.148 50.8929 524.779 50.354L503.879 19.8535Z" fill="white"/>
<rect width="10" height="50" rx="2" fill="#D9D9D9"/>
<rect x="30" width="10" height="50" rx="2" fill="#D9D9D9"/>
<rect x="15" width="10" height="50" rx="2" fill="#1E1E1E"/>
<rect x="45" width="10" height="50" rx="2" fill="#1E1E1E"/>
<rect x="75" width="10" height="50" rx="2" fill="#D9D9D9"/>
<rect x="60" width="10" height="50" rx="2" fill="#1E1E1E"/>
<rect x="180" width="10" height="50" rx="2" fill="#D9D9D9"/>
<rect x="210" width="10" height="50" rx="2" fill="#D9D9D9"/>
<rect x="195" width="10" height="50" rx="2" fill="#1E1E1E"/>
<rect x="225" width="10" height="50" rx="2" fill="#D9D9D9"/>
<rect x="255" width="10" height="50" rx="2" fill="#222222"/>
<rect x="240" width="10" height="50" rx="2" fill="#1E1E1E"/>
<rect x="270" width="10" height="50" rx="2" fill="#333333"/>
<rect x="285" width="10" height="50" rx="2" fill="#444444"/>
<rect x="301" width="10" height="50" rx="2" fill="#555555"/>
<rect x="316" width="10" height="50" rx="2" fill="#666666"/>
<rect x="331" width="10" height="50" rx="2" fill="#777777"/>
<rect x="346" width="10" height="50" rx="2" fill="#888888"/>
<rect x="377.573" width="10" height="50" rx="2" transform="rotate(2.94921 377.573 0)" fill="#AAAAAA"/>
<rect x="395.696" width="10" height="50" rx="2" transform="rotate(6.54098 395.696 0)" fill="#BBBBBB"/>
<rect x="417.577" width="10" height="50" rx="2" transform="rotate(15.7561 417.577 0)" fill="#CCCCCC"/>
<rect x="439.888" y="2" width="10" height="50" rx="2" transform="rotate(25.5861 439.888 2)" fill="#DDDDDD"/>
<rect x="460.827" y="4" width="10" height="50" rx="2" transform="rotate(33.6693 460.827 4)" fill="#EEEEEE"/>
<rect x="361" width="10" height="50" rx="2" fill="#999999"/>
<rect x="90" width="10" height="50" rx="2" fill="#D9D9D9"/>
<rect x="120" width="10" height="50" rx="2" fill="#E6E6E6"/>
<rect x="105" width="10" height="50" rx="2" fill="#1E1E1E"/>
<rect x="135" width="10" height="50" rx="2" fill="#1E1E1E"/>
<rect x="165" width="10" height="50" rx="2" fill="#1E1E1E"/>
<rect x="150" width="10" height="50" rx="2" fill="#D9D9D9"/>
</svg>
