<svg width="21" height="19" viewBox="0 0 21 19" fill="none" xmlns="http://www.w3.org/2000/svg">
<path d="M0 0.794792C0 0.35584 0.374582 0 0.836653 0H20.1633C20.6254 0 21 0.35584 21 0.794792V3.67194C21 4.11089 20.6254 4.46673 20.1633 4.46673H0.836653C0.374582 4.46673 0 4.11089 0 3.67194V0.794792Z" fill="white"/>
<path d="M8.01818 5.27502C8.01818 4.82861 8.39871 4.46673 8.86812 4.46673H12.1319C12.6013 4.46673 12.9818 4.82861 12.9818 5.27502V18.1753C12.9818 18.6217 12.6013 18.9836 12.1319 18.9836H8.86812C8.39871 18.9836 8.01818 18.6217 8.01818 18.1753V5.27502Z" fill="white"/>
<path d="M8.23469 4.76377C8.37567 4.56318 8.65676 4.51199 8.86252 4.64943L12.1466 6.84303C12.3523 6.98047 12.4048 7.2545 12.2639 7.45509L4.28443 18.8085C4.14345 19.0091 3.86236 19.0603 3.6566 18.9229L0.372547 16.7293C0.166788 16.5918 0.114273 16.3178 0.255253 16.1172L8.23469 4.76377Z" fill="white"/>
<path d="M8.73573 7.39003C8.59474 7.18945 8.64724 6.91542 8.853 6.77797L12.137 4.58423C12.3427 4.44679 12.6238 4.49797 12.7648 4.69856L20.7447 16.0517C20.8857 16.2523 20.8332 16.5263 20.6274 16.6637L17.3435 18.8575C17.1377 18.9949 16.8566 18.9437 16.7156 18.7432L8.73573 7.39003Z" fill="white"/>
</svg>
